# xmcd
#
# Track frame offsets:
#	150
#	26523
#	43792
#	58971
#	81557
#	96446
#	122521
#	142330
#	168089
#	183893
#	204028
#
# Disc length: 3351 seconds
#
# Revision: 0
# Processed by: cddbd v1.4PL0 Copyright (c) Steve Scherf et al.
# Submitted via: dBpowerAMP V4.0
#
DISCID=980d150b
DTITLE=Jason Boland and The Stragglers - Pearl Snaps
DYEAR=1900
DGENRE=
TTITLE0=Somewhere Down In Texas
TTITLE1=Drink'in Song
TTITLE2=Pearl Snaps
TTITLE3=Proud Souls
TTITLE4=Ponies
TTITLE5=Backslider Blues
TTITLE6=Telephone Romeo
TTITLE7=Devil Pays In Gold
TTITLE8=If I Ever Get Back To Oklahoma
TTITLE9=No Damn Good
TTITLE10=Change In the Weather
EXTD=
EXTT0=
EXTT1=
EXTT2=
EXTT3=
EXTT4=
EXTT5=
EXTT6=
EXTT7=
EXTT8=
EXTT9=
EXTT10=
PLAYORDER=
